<?xml version="1.0" encoding="UTF-8" standalone="no"?>
<!DOCTYPE svg PUBLIC "-//W3C//DTD SVG 1.1//EN"
 "http://www.w3.org/Graphics/SVG/1.1/DTD/svg11.dtd">
<!-- Generated by graphviz version 2.43.0 (0)
 -->
<!-- Title: gemmi::ResidueGroup Pages: 1 -->
<svg width="145pt" height="207pt"
 viewBox="0.00 0.00 145.00 207.00" xmlns="http://www.w3.org/2000/svg" xmlns:xlink="http://www.w3.org/1999/xlink">
<g id="graph0" class="graph" transform="scale(1 1) rotate(0) translate(4 203)">
<title>gemmi::ResidueGroup</title>
<polygon fill="white" stroke="transparent" points="-4,4 -4,-203 141,-203 141,4 -4,4"/>
<!-- Node1 -->
<g id="node1" class="node">
<title>Node1</title>
<g id="a_node1"><a xlink:title=" ">
<polygon fill="#bfbfbf" stroke="black" points="11.5,-0.5 11.5,-19.5 125.5,-19.5 125.5,-0.5 11.5,-0.5"/>
<text text-anchor="middle" x="68.5" y="-7.5" font-family="Helvetica,sans-Serif" font-size="10.00">gemmi::ResidueGroup</text>
</a>
</g>
</g>
<!-- Node2 -->
<g id="node2" class="node">
<title>Node2</title>
<g id="a_node2"><a xlink:href="structgemmi_1_1ResidueSpan.html" target="_top" xlink:title=" ">
<polygon fill="white" stroke="black" points="13.5,-56.5 13.5,-75.5 123.5,-75.5 123.5,-56.5 13.5,-56.5"/>
<text text-anchor="middle" x="68.5" y="-63.5" font-family="Helvetica,sans-Serif" font-size="10.00">gemmi::ResidueSpan</text>
</a>
</g>
</g>
<!-- Node2&#45;&gt;Node1 -->
<g id="edge1" class="edge">
<title>Node2&#45;&gt;Node1</title>
<path fill="none" stroke="midnightblue" d="M68.5,-45.8C68.5,-36.91 68.5,-26.78 68.5,-19.75"/>
<polygon fill="midnightblue" stroke="midnightblue" points="65,-46.08 68.5,-56.08 72,-46.08 65,-46.08"/>
</g>
<!-- Node3 -->
<g id="node3" class="node">
<title>Node3</title>
<g id="a_node3"><a xlink:href="structgemmi_1_1MutableVectorSpan.html" target="_top" xlink:title=" ">
<polygon fill="white" stroke="black" points="0,-112.5 0,-142.5 137,-142.5 137,-112.5 0,-112.5"/>
<text text-anchor="start" x="8" y="-130.5" font-family="Helvetica,sans-Serif" font-size="10.00">gemmi::MutableVectorSpan</text>
<text text-anchor="middle" x="68.5" y="-119.5" font-family="Helvetica,sans-Serif" font-size="10.00">&lt; Residue &gt;</text>
</a>
</g>
</g>
<!-- Node3&#45;&gt;Node2 -->
<g id="edge2" class="edge">
<title>Node3&#45;&gt;Node2</title>
<path fill="none" stroke="midnightblue" d="M68.5,-102.29C68.5,-92.86 68.5,-82.65 68.5,-75.66"/>
<polygon fill="midnightblue" stroke="midnightblue" points="65,-102.4 68.5,-112.4 72,-102.4 65,-102.4"/>
</g>
<!-- Node4 -->
<g id="node4" class="node">
<title>Node4</title>
<g id="a_node4"><a xlink:href="structgemmi_1_1Span.html" target="_top" xlink:title=" ">
<polygon fill="white" stroke="black" points="4.5,-179.5 4.5,-198.5 132.5,-198.5 132.5,-179.5 4.5,-179.5"/>
<text text-anchor="middle" x="68.5" y="-186.5" font-family="Helvetica,sans-Serif" font-size="10.00">gemmi::Span&lt; Residue &gt;</text>
</a>
</g>
</g>
<!-- Node4&#45;&gt;Node3 -->
<g id="edge3" class="edge">
<title>Node4&#45;&gt;Node3</title>
<path fill="none" stroke="midnightblue" d="M68.5,-169.23C68.5,-160.59 68.5,-150.5 68.5,-142.52"/>
<polygon fill="midnightblue" stroke="midnightblue" points="65,-169.48 68.5,-179.48 72,-169.48 65,-169.48"/>
</g>
</g>
</svg>
