<?xml version="1.0" encoding="UTF-8" standalone="no"?>
<!DOCTYPE svg PUBLIC "-//W3C//DTD SVG 1.1//EN"
 "http://www.w3.org/Graphics/SVG/1.1/DTD/svg11.dtd">
<!-- Generated by graphviz version 2.43.0 (0)
 -->
<!-- Title: gemmi::GridMeta Pages: 1 -->
<svg width="521pt" height="269pt"
 viewBox="0.00 0.00 521.00 269.00" xmlns="http://www.w3.org/2000/svg" xmlns:xlink="http://www.w3.org/1999/xlink">
<g id="graph0" class="graph" transform="scale(1 1) rotate(0) translate(4 265)">
<title>gemmi::GridMeta</title>
<!-- Node1 -->
<g id="Node000001" class="node">
<title>Node1</title>
<g id="a_Node000001"><a xlink:title="The base of Grid classes that does not depend on stored data type.">
<polygon fill="#999999" stroke="#666666" points="102,-200 0,-200 0,-181 102,-181 102,-200"/>
<text text-anchor="middle" x="51" y="-188" font-family="Helvetica,sans-Serif" font-size="10.00">gemmi::GridMeta</text>
</a>
</g>
</g>
<!-- Node2 -->
<g id="Node000002" class="node">
<title>Node2</title>
<g id="a_Node000002"><a xlink:href="structgemmi_1_1GridBase.html" target="_top" xlink:title=" ">
<polygon fill="white" stroke="#666666" points="302,-261 156,-261 156,-242 302,-242 302,-261"/>
<text text-anchor="middle" x="229" y="-249" font-family="Helvetica,sans-Serif" font-size="10.00">gemmi::GridBase&lt; float &gt;</text>
</a>
</g>
</g>
<!-- Node1&#45;&gt;Node2 -->
<g id="edge1_Node000001_Node000002" class="edge">
<title>Node1&#45;&gt;Node2</title>
<g id="a_edge1_Node000001_Node000002"><a xlink:title=" ">
<path fill="none" stroke="#63b8ff" d="M77.03,-205.25C93.79,-214.56 116.62,-226.16 138,-233.5 147.65,-236.81 158.09,-239.59 168.34,-241.9"/>
<polygon fill="#63b8ff" stroke="#63b8ff" points="78.35,-201.97 67.92,-200.09 74.9,-208.06 78.35,-201.97"/>
</a>
</g>
</g>
<!-- Node3 -->
<g id="Node000003" class="node">
<title>Node3</title>
<g id="a_Node000003"><a xlink:href="structgemmi_1_1GridBase.html" target="_top" xlink:title=" ">
<polygon fill="white" stroke="#666666" points="305.5,-224 152.5,-224 152.5,-205 305.5,-205 305.5,-224"/>
<text text-anchor="middle" x="229" y="-212" font-family="Helvetica,sans-Serif" font-size="10.00">gemmi::GridBase&lt; GReal &gt;</text>
</a>
</g>
</g>
<!-- Node1&#45;&gt;Node3 -->
<g id="edge2_Node000001_Node000003" class="edge">
<title>Node1&#45;&gt;Node3</title>
<g id="a_edge2_Node000001_Node000003"><a xlink:title=" ">
<path fill="none" stroke="#63b8ff" d="M112.44,-198.74C127.18,-200.75 143.07,-202.92 158.21,-204.98"/>
<polygon fill="#63b8ff" stroke="#63b8ff" points="112.82,-195.26 102.43,-197.38 111.87,-202.2 112.82,-195.26"/>
</a>
</g>
</g>
<!-- Node4 -->
<g id="Node000004" class="node">
<title>Node4</title>
<g id="a_Node000004"><a xlink:href="structgemmi_1_1GridBase.html" target="_top" xlink:title=" ">
<polygon fill="white" stroke="#666666" points="320,-187 138,-187 138,-146 320,-146 320,-187"/>
<text text-anchor="start" x="146" y="-175" font-family="Helvetica,sans-Serif" font-size="10.00">gemmi::GridBase&lt; std</text>
<text text-anchor="start" x="146" y="-164" font-family="Helvetica,sans-Serif" font-size="10.00">::vector&lt; gemmi::NeighborSearch</text>
<text text-anchor="middle" x="229" y="-153" font-family="Helvetica,sans-Serif" font-size="10.00">::Mark &gt; &gt;</text>
</a>
</g>
</g>
<!-- Node1&#45;&gt;Node4 -->
<g id="edge3_Node000001_Node000004" class="edge">
<title>Node1&#45;&gt;Node4</title>
<g id="a_edge3_Node000001_Node000004"><a xlink:title=" ">
<path fill="none" stroke="#63b8ff" d="M112.35,-182.27C120.65,-181.14 129.31,-179.96 138,-178.77"/>
<polygon fill="#63b8ff" stroke="#63b8ff" points="111.87,-178.8 102.43,-183.62 112.82,-185.74 111.87,-178.8"/>
</a>
</g>
</g>
<!-- Node5 -->
<g id="Node000005" class="node">
<title>Node5</title>
<g id="a_Node000005"><a xlink:href="structgemmi_1_1GridBase.html" target="_top" xlink:title="A common subset of Grid and ReciprocalGrid.">
<polygon fill="white" stroke="#666666" points="294,-128 164,-128 164,-109 294,-109 294,-128"/>
<text text-anchor="middle" x="229" y="-116" font-family="Helvetica,sans-Serif" font-size="10.00">gemmi::GridBase&lt; T &gt;</text>
</a>
</g>
</g>
<!-- Node1&#45;&gt;Node5 -->
<g id="edge4_Node000001_Node000005" class="edge">
<title>Node1&#45;&gt;Node5</title>
<g id="a_edge4_Node000001_Node000005"><a xlink:title=" ">
<path fill="none" stroke="#63b8ff" d="M72.83,-174.81C89.6,-162.9 114.23,-147 138,-137.5 147.64,-133.65 158.19,-130.53 168.56,-128.01"/>
<polygon fill="#63b8ff" stroke="#63b8ff" points="70.41,-172.24 64.37,-180.95 74.52,-177.91 70.41,-172.24"/>
</a>
</g>
</g>
<!-- Node6 -->
<g id="Node000006" class="node">
<title>Node6</title>
<g id="a_Node000006"><a xlink:href="structgemmi_1_1Grid.html" target="_top" xlink:title=" ">
<polygon fill="white" stroke="#666666" points="495.5,-226 373.5,-226 373.5,-207 495.5,-207 495.5,-226"/>
<text text-anchor="middle" x="434.5" y="-214" font-family="Helvetica,sans-Serif" font-size="10.00">gemmi::Grid&lt; float &gt;</text>
</a>
</g>
</g>
<!-- Node5&#45;&gt;Node6 -->
<g id="edge5_Node000005_Node000006" class="edge">
<title>Node5&#45;&gt;Node6</title>
<g id="a_edge5_Node000005_Node000006"><a xlink:title=" ">
<path fill="none" stroke="#63b8ff" d="M304.01,-128.71C309.68,-131.08 315.1,-133.98 320,-137.5 345.57,-155.86 330.62,-179.88 356,-198.5 361.23,-202.34 367.16,-205.38 373.34,-207.78"/>
<polygon fill="#63b8ff" stroke="#63b8ff" points="304.86,-125.29 294.27,-125.17 302.47,-131.87 304.86,-125.29"/>
</a>
</g>
</g>
<!-- Node7 -->
<g id="Node000007" class="node">
<title>Node7</title>
<g id="a_Node000007"><a xlink:href="structgemmi_1_1Grid.html" target="_top" xlink:title=" ">
<polygon fill="white" stroke="#666666" points="499,-189 370,-189 370,-170 499,-170 499,-189"/>
<text text-anchor="middle" x="434.5" y="-177" font-family="Helvetica,sans-Serif" font-size="10.00">gemmi::Grid&lt; GReal &gt;</text>
</a>
</g>
</g>
<!-- Node5&#45;&gt;Node7 -->
<g id="edge6_Node000005_Node000007" class="edge">
<title>Node5&#45;&gt;Node7</title>
<g id="a_edge6_Node000005_Node000007"><a xlink:title=" ">
<path fill="none" stroke="#63b8ff" d="M300.73,-130.73C307.35,-132.68 313.87,-134.92 320,-137.5 337.73,-144.95 338.35,-153.87 356,-161.5 363.73,-164.84 372.18,-167.62 380.57,-169.9"/>
<polygon fill="#63b8ff" stroke="#63b8ff" points="301.56,-127.33 291,-128.08 299.73,-134.09 301.56,-127.33"/>
</a>
</g>
</g>
<!-- Node8 -->
<g id="Node000008" class="node">
<title>Node8</title>
<g id="a_Node000008"><a xlink:href="structgemmi_1_1Grid.html" target="_top" xlink:title=" ">
<polygon fill="white" stroke="#666666" points="487.5,-152 381.5,-152 381.5,-133 487.5,-133 487.5,-152"/>
<text text-anchor="middle" x="434.5" y="-140" font-family="Helvetica,sans-Serif" font-size="10.00">gemmi::Grid&lt; T &gt;</text>
</a>
</g>
</g>
<!-- Node5&#45;&gt;Node8 -->
<g id="edge7_Node000005_Node000008" class="edge">
<title>Node5&#45;&gt;Node8</title>
<g id="a_edge7_Node000005_Node000008"><a xlink:title=" ">
<path fill="none" stroke="#63b8ff" d="M304.15,-127.24C329.73,-130.26 357.83,-133.58 381.28,-136.34"/>
<polygon fill="#63b8ff" stroke="#63b8ff" points="304.45,-123.76 294.11,-126.06 303.63,-130.71 304.45,-123.76"/>
</a>
</g>
</g>
<!-- Node9 -->
<g id="Node000009" class="node">
<title>Node9</title>
<g id="a_Node000009"><a xlink:href="structgemmi_1_1Grid.html" target="_top" xlink:title=" ">
<polygon fill="white" stroke="#666666" points="507.5,-115 361.5,-115 361.5,-74 507.5,-74 507.5,-115"/>
<text text-anchor="start" x="369.5" y="-103" font-family="Helvetica,sans-Serif" font-size="10.00">gemmi::Grid&lt; std::vector</text>
<text text-anchor="start" x="369.5" y="-92" font-family="Helvetica,sans-Serif" font-size="10.00">&lt; gemmi::NeighborSearch</text>
<text text-anchor="middle" x="434.5" y="-81" font-family="Helvetica,sans-Serif" font-size="10.00">::Mark &gt; &gt;</text>
</a>
</g>
</g>
<!-- Node5&#45;&gt;Node9 -->
<g id="edge8_Node000005_Node000009" class="edge">
<title>Node5&#45;&gt;Node9</title>
<g id="a_edge8_Node000005_Node000009"><a xlink:title=" ">
<path fill="none" stroke="#63b8ff" d="M304.27,-109.74C322.85,-107.55 342.74,-105.2 361.21,-103.03"/>
<polygon fill="#63b8ff" stroke="#63b8ff" points="303.63,-106.29 294.11,-110.94 304.45,-113.24 303.63,-106.29"/>
</a>
</g>
</g>
<!-- Node10 -->
<g id="Node000010" class="node">
<title>Node10</title>
<g id="a_Node000010"><a xlink:href="structgemmi_1_1Grid.html" target="_top" xlink:title="Real&#45;space grid.">
<polygon fill="white" stroke="#666666" points="487.5,-56 381.5,-56 381.5,-37 487.5,-37 487.5,-56"/>
<text text-anchor="middle" x="434.5" y="-44" font-family="Helvetica,sans-Serif" font-size="10.00">gemmi::Grid&lt; T &gt;</text>
</a>
</g>
</g>
<!-- Node5&#45;&gt;Node10 -->
<g id="edge9_Node000005_Node000010" class="edge">
<title>Node5&#45;&gt;Node10</title>
<g id="a_edge9_Node000005_Node000010"><a xlink:title=" ">
<path fill="none" stroke="#63b8ff" d="M259.49,-104.53C284.71,-92.97 322.18,-76.68 356,-65.5 366.65,-61.98 378.32,-58.78 389.3,-56.06"/>
<polygon fill="#63b8ff" stroke="#63b8ff" points="257.74,-101.48 250.14,-108.86 260.68,-107.84 257.74,-101.48"/>
</a>
</g>
</g>
<!-- Node11 -->
<g id="Node000011" class="node">
<title>Node11</title>
<g id="a_Node000011"><a xlink:href="structgemmi_1_1ReciprocalGrid.html" target="_top" xlink:title=" ">
<polygon fill="white" stroke="#666666" points="513,-19 356,-19 356,0 513,0 513,-19"/>
<text text-anchor="middle" x="434.5" y="-7" font-family="Helvetica,sans-Serif" font-size="10.00">gemmi::ReciprocalGrid&lt; T &gt;</text>
</a>
</g>
</g>
<!-- Node5&#45;&gt;Node11 -->
<g id="edge10_Node000005_Node000011" class="edge">
<title>Node5&#45;&gt;Node11</title>
<g id="a_edge10_Node000005_Node000011"><a xlink:title=" ">
<path fill="none" stroke="#63b8ff" d="M248.27,-101.98C271.6,-81.74 314,-47.78 356,-28.5 364.31,-24.69 373.49,-21.58 382.53,-19.06"/>
<polygon fill="#63b8ff" stroke="#63b8ff" points="245.76,-99.53 240.57,-108.76 250.39,-104.78 245.76,-99.53"/>
</a>
</g>
</g>
</g>
</svg>
