<?xml version="1.0" encoding="UTF-8" standalone="no"?>
<!DOCTYPE svg PUBLIC "-//W3C//DTD SVG 1.1//EN"
 "http://www.w3.org/Graphics/SVG/1.1/DTD/svg11.dtd">
<!-- Generated by graphviz version 2.43.0 (0)
 -->
<!-- Title: gemmi::GridBase&lt; T &gt; Pages: 1 -->
<svg width="469pt" height="234pt"
 viewBox="0.00 0.00 469.00 234.00" xmlns="http://www.w3.org/2000/svg" xmlns:xlink="http://www.w3.org/1999/xlink">
<g id="graph0" class="graph" transform="scale(1 1) rotate(0) translate(4 230)">
<title>gemmi::GridBase&lt; T &gt;</title>
<!-- Node1 -->
<g id="Node000001" class="node">
<title>Node1</title>
<g id="a_Node000001"><a xlink:title="A common subset of Grid and ReciprocalGrid.">
<polygon fill="#999999" stroke="#666666" points="268,-128 138,-128 138,-109 268,-109 268,-128"/>
<text text-anchor="middle" x="203" y="-116" font-family="Helvetica,sans-Serif" font-size="10.00">gemmi::GridBase&lt; T &gt;</text>
</a>
</g>
</g>
<!-- Node3 -->
<g id="Node000003" class="node">
<title>Node3</title>
<g id="a_Node000003"><a xlink:href="structgemmi_1_1Grid.html" target="_top" xlink:title=" ">
<polygon fill="white" stroke="#666666" points="443.5,-226 321.5,-226 321.5,-207 443.5,-207 443.5,-226"/>
<text text-anchor="middle" x="382.5" y="-214" font-family="Helvetica,sans-Serif" font-size="10.00">gemmi::Grid&lt; float &gt;</text>
</a>
</g>
</g>
<!-- Node1&#45;&gt;Node3 -->
<g id="edge2_Node000001_Node000003" class="edge">
<title>Node1&#45;&gt;Node3</title>
<g id="a_edge2_Node000001_Node000003"><a xlink:title=" ">
<path fill="none" stroke="#63b8ff" d="M219.99,-135.16C238.51,-153.45 270.74,-182.37 304,-198.5 310.96,-201.87 318.58,-204.63 326.25,-206.89"/>
<polygon fill="#63b8ff" stroke="#63b8ff" points="222.46,-132.67 212.93,-128.04 217.49,-137.6 222.46,-132.67"/>
</a>
</g>
</g>
<!-- Node4 -->
<g id="Node000004" class="node">
<title>Node4</title>
<g id="a_Node000004"><a xlink:href="structgemmi_1_1Grid.html" target="_top" xlink:title=" ">
<polygon fill="white" stroke="#666666" points="447,-189 318,-189 318,-170 447,-170 447,-189"/>
<text text-anchor="middle" x="382.5" y="-177" font-family="Helvetica,sans-Serif" font-size="10.00">gemmi::Grid&lt; GReal &gt;</text>
</a>
</g>
</g>
<!-- Node1&#45;&gt;Node4 -->
<g id="edge3_Node000001_Node000004" class="edge">
<title>Node1&#45;&gt;Node4</title>
<g id="a_edge3_Node000001_Node000004"><a xlink:title=" ">
<path fill="none" stroke="#63b8ff" d="M232.57,-132.4C252.29,-141.59 279.31,-153.4 304,-161.5 313.71,-164.69 324.28,-167.54 334.41,-169.98"/>
<polygon fill="#63b8ff" stroke="#63b8ff" points="234.06,-129.23 223.52,-128.13 231.07,-135.56 234.06,-129.23"/>
</a>
</g>
</g>
<!-- Node5 -->
<g id="Node000005" class="node">
<title>Node5</title>
<g id="a_Node000005"><a xlink:href="structgemmi_1_1Grid.html" target="_top" xlink:title=" ">
<polygon fill="white" stroke="#666666" points="435.5,-152 329.5,-152 329.5,-133 435.5,-133 435.5,-152"/>
<text text-anchor="middle" x="382.5" y="-140" font-family="Helvetica,sans-Serif" font-size="10.00">gemmi::Grid&lt; T &gt;</text>
</a>
</g>
</g>
<!-- Node1&#45;&gt;Node5 -->
<g id="edge4_Node000001_Node000005" class="edge">
<title>Node1&#45;&gt;Node5</title>
<g id="a_edge4_Node000001_Node000005"><a xlink:title=" ">
<path fill="none" stroke="#63b8ff" d="M278.13,-128.52C295.38,-130.86 313.4,-133.29 329.46,-135.46"/>
<polygon fill="#63b8ff" stroke="#63b8ff" points="278.46,-125.04 268.08,-127.16 277.52,-131.97 278.46,-125.04"/>
</a>
</g>
</g>
<!-- Node6 -->
<g id="Node000006" class="node">
<title>Node6</title>
<g id="a_Node000006"><a xlink:href="structgemmi_1_1Grid.html" target="_top" xlink:title=" ">
<polygon fill="white" stroke="#666666" points="455.5,-115 309.5,-115 309.5,-74 455.5,-74 455.5,-115"/>
<text text-anchor="start" x="317.5" y="-103" font-family="Helvetica,sans-Serif" font-size="10.00">gemmi::Grid&lt; std::vector</text>
<text text-anchor="start" x="317.5" y="-92" font-family="Helvetica,sans-Serif" font-size="10.00">&lt; gemmi::NeighborSearch</text>
<text text-anchor="middle" x="382.5" y="-81" font-family="Helvetica,sans-Serif" font-size="10.00">::Mark &gt; &gt;</text>
</a>
</g>
</g>
<!-- Node1&#45;&gt;Node6 -->
<g id="edge5_Node000001_Node000006" class="edge">
<title>Node1&#45;&gt;Node6</title>
<g id="a_edge5_Node000001_Node000006"><a xlink:title=" ">
<path fill="none" stroke="#63b8ff" d="M278.27,-108.46C288.56,-107.07 299.13,-105.64 309.38,-104.25"/>
<polygon fill="#63b8ff" stroke="#63b8ff" points="277.52,-105.03 268.08,-109.84 278.46,-111.96 277.52,-105.03"/>
</a>
</g>
</g>
<!-- Node7 -->
<g id="Node000007" class="node">
<title>Node7</title>
<g id="a_Node000007"><a xlink:href="structgemmi_1_1Grid.html" target="_top" xlink:title="Real&#45;space grid.">
<polygon fill="white" stroke="#666666" points="435.5,-56 329.5,-56 329.5,-37 435.5,-37 435.5,-56"/>
<text text-anchor="middle" x="382.5" y="-44" font-family="Helvetica,sans-Serif" font-size="10.00">gemmi::Grid&lt; T &gt;</text>
</a>
</g>
</g>
<!-- Node1&#45;&gt;Node7 -->
<g id="edge6_Node000001_Node000007" class="edge">
<title>Node1&#45;&gt;Node7</title>
<g id="a_edge6_Node000001_Node000007"><a xlink:title=" ">
<path fill="none" stroke="#63b8ff" d="M227.26,-103.62C247,-91.57 276.44,-74.93 304,-64.5 312.66,-61.23 322.09,-58.43 331.3,-56.09"/>
<polygon fill="#63b8ff" stroke="#63b8ff" points="225.3,-100.71 218.65,-108.96 228.99,-106.66 225.3,-100.71"/>
</a>
</g>
</g>
<!-- Node8 -->
<g id="Node000008" class="node">
<title>Node8</title>
<g id="a_Node000008"><a xlink:href="structgemmi_1_1ReciprocalGrid.html" target="_top" xlink:title=" ">
<polygon fill="white" stroke="#666666" points="461,-19 304,-19 304,0 461,0 461,-19"/>
<text text-anchor="middle" x="382.5" y="-7" font-family="Helvetica,sans-Serif" font-size="10.00">gemmi::ReciprocalGrid&lt; T &gt;</text>
</a>
</g>
</g>
<!-- Node1&#45;&gt;Node8 -->
<g id="edge7_Node000001_Node000008" class="edge">
<title>Node1&#45;&gt;Node8</title>
<g id="a_edge7_Node000001_Node000008"><a xlink:title=" ">
<path fill="none" stroke="#63b8ff" d="M218.15,-101.05C235.97,-80.29 268.56,-46.1 304,-27.5 310.48,-24.1 317.6,-21.33 324.82,-19.09"/>
<polygon fill="#63b8ff" stroke="#63b8ff" points="215.4,-98.88 211.66,-108.8 220.77,-103.38 215.4,-98.88"/>
</a>
</g>
</g>
<!-- Node2 -->
<g id="Node000002" class="node">
<title>Node2</title>
<g id="a_Node000002"><a xlink:href="structgemmi_1_1GridMeta.html" target="_top" xlink:title="The base of Grid classes that does not depend on stored data type.">
<polygon fill="white" stroke="#666666" points="102,-128 0,-128 0,-109 102,-109 102,-128"/>
<text text-anchor="middle" x="51" y="-116" font-family="Helvetica,sans-Serif" font-size="10.00">gemmi::GridMeta</text>
</a>
</g>
</g>
<!-- Node2&#45;&gt;Node1 -->
<g id="edge1_Node000001_Node000002" class="edge">
<title>Node2&#45;&gt;Node1</title>
<g id="a_edge1_Node000001_Node000002"><a xlink:title=" ">
<path fill="none" stroke="#63b8ff" d="M112.44,-118.5C120.83,-118.5 129.47,-118.5 137.92,-118.5"/>
<polygon fill="#63b8ff" stroke="#63b8ff" points="112.37,-115 102.37,-118.5 112.37,-122 112.37,-115"/>
</a>
</g>
</g>
</g>
</svg>
