<?xml version="1.0" encoding="UTF-8" standalone="no"?>
<!DOCTYPE svg PUBLIC "-//W3C//DTD SVG 1.1//EN"
 "http://www.w3.org/Graphics/SVG/1.1/DTD/svg11.dtd">
<!-- Generated by graphviz version 2.43.0 (0)
 -->
<!-- Title: gemmi::Vec3 Pages: 1 -->
<svg width="208pt" height="84pt"
 viewBox="0.00 0.00 208.00 84.00" xmlns="http://www.w3.org/2000/svg" xmlns:xlink="http://www.w3.org/1999/xlink">
<g id="graph0" class="graph" transform="scale(1 1) rotate(0) translate(4 80)">
<title>gemmi::Vec3</title>
<polygon fill="white" stroke="transparent" points="-4,4 -4,-80 204,-80 204,4 -4,4"/>
<!-- Node1 -->
<g id="node1" class="node">
<title>Node1</title>
<g id="a_node1"><a xlink:title=" ">
<polygon fill="#bfbfbf" stroke="black" points="64.5,-56.5 64.5,-75.5 138.5,-75.5 138.5,-56.5 64.5,-56.5"/>
<text text-anchor="middle" x="101.5" y="-63.5" font-family="Helvetica,sans-Serif" font-size="10.00">gemmi::Vec3</text>
</a>
</g>
</g>
<!-- Node2 -->
<g id="node2" class="node">
<title>Node2</title>
<g id="a_node2"><a xlink:href="structgemmi_1_1Fractional.html" target="_top" xlink:title="Fractional coordinates.">
<polygon fill="white" stroke="black" points="0,-0.5 0,-19.5 95,-19.5 95,-0.5 0,-0.5"/>
<text text-anchor="middle" x="47.5" y="-7.5" font-family="Helvetica,sans-Serif" font-size="10.00">gemmi::Fractional</text>
</a>
</g>
</g>
<!-- Node1&#45;&gt;Node2 -->
<g id="edge1" class="edge">
<title>Node1&#45;&gt;Node2</title>
<path fill="none" stroke="midnightblue" d="M85.5,-49C75.93,-39.43 64.14,-27.64 56.25,-19.75"/>
<polygon fill="midnightblue" stroke="midnightblue" points="83.04,-51.49 92.58,-56.08 87.99,-46.54 83.04,-51.49"/>
</g>
<!-- Node3 -->
<g id="node3" class="node">
<title>Node3</title>
<g id="a_node3"><a xlink:href="structgemmi_1_1Position.html" target="_top" xlink:title="Coordinates in Angstroms &#45; orthogonal (Cartesian) coordinates.">
<polygon fill="white" stroke="black" points="113,-0.5 113,-19.5 200,-19.5 200,-0.5 113,-0.5"/>
<text text-anchor="middle" x="156.5" y="-7.5" font-family="Helvetica,sans-Serif" font-size="10.00">gemmi::Position</text>
</a>
</g>
</g>
<!-- Node1&#45;&gt;Node3 -->
<g id="edge2" class="edge">
<title>Node1&#45;&gt;Node3</title>
<path fill="none" stroke="midnightblue" d="M117.79,-49C127.54,-39.43 139.55,-27.64 147.59,-19.75"/>
<polygon fill="midnightblue" stroke="midnightblue" points="115.27,-46.58 110.58,-56.08 120.17,-51.57 115.27,-46.58"/>
</g>
</g>
</svg>
