<?xml version="1.0" encoding="UTF-8" standalone="no"?>
<!DOCTYPE svg PUBLIC "-//W3C//DTD SVG 1.1//EN"
 "http://www.w3.org/Graphics/SVG/1.1/DTD/svg11.dtd">
<!-- Generated by graphviz version 2.43.0 (0)
 -->
<!-- Title: gemmi::GridBase&lt; T &gt; Pages: 1 -->
<svg width="260pt" height="140pt"
 viewBox="0.00 0.00 260.00 140.00" xmlns="http://www.w3.org/2000/svg" xmlns:xlink="http://www.w3.org/1999/xlink">
<g id="graph0" class="graph" transform="scale(1 1) rotate(0) translate(4 136)">
<title>gemmi::GridBase&lt; T &gt;</title>
<polygon fill="white" stroke="transparent" points="-4,4 -4,-136 256,-136 256,4 -4,4"/>
<!-- Node1 -->
<g id="node1" class="node">
<title>Node1</title>
<g id="a_node1"><a xlink:title="A common subset of Grid and ReciprocalGrid.">
<polygon fill="#bfbfbf" stroke="black" points="56,-56.5 56,-75.5 172,-75.5 172,-56.5 56,-56.5"/>
<text text-anchor="middle" x="114" y="-63.5" font-family="Helvetica,sans-Serif" font-size="10.00">gemmi::GridBase&lt; T &gt;</text>
</a>
</g>
</g>
<!-- Node3 -->
<g id="node3" class="node">
<title>Node3</title>
<g id="a_node3"><a xlink:href="structgemmi_1_1Grid.html" target="_top" xlink:title=" ">
<polygon fill="white" stroke="black" points="0,-0.5 0,-19.5 94,-19.5 94,-0.5 0,-0.5"/>
<text text-anchor="middle" x="47" y="-7.5" font-family="Helvetica,sans-Serif" font-size="10.00">gemmi::Grid&lt; T &gt;</text>
</a>
</g>
</g>
<!-- Node1&#45;&gt;Node3 -->
<g id="edge2" class="edge">
<title>Node1&#45;&gt;Node3</title>
<path fill="none" stroke="midnightblue" d="M95.17,-49.82C83.16,-40.15 68.03,-27.95 57.96,-19.83"/>
<polygon fill="midnightblue" stroke="midnightblue" points="93.25,-52.77 103.24,-56.32 97.65,-47.32 93.25,-52.77"/>
</g>
<!-- Node4 -->
<g id="node4" class="node">
<title>Node4</title>
<g id="a_node4"><a xlink:href="structgemmi_1_1ReciprocalGrid.html" target="_top" xlink:title=" ">
<polygon fill="white" stroke="black" points="112,-0.5 112,-19.5 252,-19.5 252,-0.5 112,-0.5"/>
<text text-anchor="middle" x="182" y="-7.5" font-family="Helvetica,sans-Serif" font-size="10.00">gemmi::ReciprocalGrid&lt; T &gt;</text>
</a>
</g>
</g>
<!-- Node1&#45;&gt;Node4 -->
<g id="edge3" class="edge">
<title>Node1&#45;&gt;Node4</title>
<path fill="none" stroke="midnightblue" d="M132.76,-50.1C145,-40.38 160.56,-28.03 170.88,-19.83"/>
<polygon fill="midnightblue" stroke="midnightblue" points="130.58,-47.36 124.93,-56.32 134.93,-52.85 130.58,-47.36"/>
</g>
<!-- Node2 -->
<g id="node2" class="node">
<title>Node2</title>
<g id="a_node2"><a xlink:href="structgemmi_1_1GridMeta.html" target="_top" xlink:title="The base of Grid classes that does not depend on stored data type.">
<polygon fill="white" stroke="black" points="68,-112.5 68,-131.5 160,-131.5 160,-112.5 68,-112.5"/>
<text text-anchor="middle" x="114" y="-119.5" font-family="Helvetica,sans-Serif" font-size="10.00">gemmi::GridMeta</text>
</a>
</g>
</g>
<!-- Node2&#45;&gt;Node1 -->
<g id="edge1" class="edge">
<title>Node2&#45;&gt;Node1</title>
<path fill="none" stroke="midnightblue" d="M114,-101.8C114,-92.91 114,-82.78 114,-75.75"/>
<polygon fill="midnightblue" stroke="midnightblue" points="110.5,-102.08 114,-112.08 117.5,-102.08 110.5,-102.08"/>
</g>
</g>
</svg>
