<?xml version="1.0" encoding="UTF-8" standalone="no"?>
<!DOCTYPE svg PUBLIC "-//W3C//DTD SVG 1.1//EN"
 "http://www.w3.org/Graphics/SVG/1.1/DTD/svg11.dtd">
<!-- Generated by graphviz version 2.43.0 (0)
 -->
<!-- Title: gemmi::GridBase&lt; T &gt; Pages: 1 -->
<svg width="428pt" height="234pt"
 viewBox="0.00 0.00 428.00 234.00" xmlns="http://www.w3.org/2000/svg" xmlns:xlink="http://www.w3.org/1999/xlink">
<g id="graph0" class="graph" transform="scale(1 1) rotate(0) translate(4 230)">
<title>gemmi::GridBase&lt; T &gt;</title>
<!-- Node1 -->
<g id="Node000001" class="node">
<title>Node1</title>
<g id="a_Node000001"><a xlink:title="A common subset of Grid and ReciprocalGrid.">
<polygon fill="#999999" stroke="#666666" points="244,-128 128,-128 128,-109 244,-109 244,-128"/>
<text text-anchor="middle" x="186" y="-116" font-family="Helvetica,sans-Serif" font-size="10.00">gemmi::GridBase&lt; T &gt;</text>
</a>
</g>
</g>
<!-- Node3 -->
<g id="Node000003" class="node">
<title>Node3</title>
<g id="a_Node000003"><a xlink:href="structgemmi_1_1Grid.html" target="_top" xlink:title=" ">
<polygon fill="white" stroke="#666666" points="403.5,-226 296.5,-226 296.5,-207 403.5,-207 403.5,-226"/>
<text text-anchor="middle" x="350" y="-214" font-family="Helvetica,sans-Serif" font-size="10.00">gemmi::Grid&lt; float &gt;</text>
</a>
</g>
</g>
<!-- Node1&#45;&gt;Node3 -->
<g id="edge2_Node000001_Node000003" class="edge">
<title>Node1&#45;&gt;Node3</title>
<g id="a_edge2_Node000001_Node000003"><a xlink:title=" ">
<path fill="none" stroke="#63b8ff" d="M202.45,-135.82C219.63,-154.05 249.08,-182.29 280,-198.5 286.47,-201.89 293.62,-204.68 300.8,-206.95"/>
<polygon fill="#63b8ff" stroke="#63b8ff" points="204.8,-133.21 195.45,-128.23 199.65,-137.96 204.8,-133.21"/>
</a>
</g>
</g>
<!-- Node4 -->
<g id="Node000004" class="node">
<title>Node4</title>
<g id="a_Node000004"><a xlink:href="structgemmi_1_1Grid.html" target="_top" xlink:title=" ">
<polygon fill="white" stroke="#666666" points="408,-189 292,-189 292,-170 408,-170 408,-189"/>
<text text-anchor="middle" x="350" y="-177" font-family="Helvetica,sans-Serif" font-size="10.00">gemmi::Grid&lt; GReal &gt;</text>
</a>
</g>
</g>
<!-- Node1&#45;&gt;Node4 -->
<g id="edge3_Node000001_Node000004" class="edge">
<title>Node1&#45;&gt;Node4</title>
<g id="a_edge3_Node000001_Node000004"><a xlink:title=" ">
<path fill="none" stroke="#63b8ff" d="M214.29,-132.68C232.54,-141.78 257.29,-153.36 280,-161.5 288.74,-164.63 298.28,-167.47 307.41,-169.93"/>
<polygon fill="#63b8ff" stroke="#63b8ff" points="215.63,-129.44 205.12,-128.05 212.47,-135.69 215.63,-129.44"/>
</a>
</g>
</g>
<!-- Node5 -->
<g id="Node000005" class="node">
<title>Node5</title>
<g id="a_Node000005"><a xlink:href="structgemmi_1_1Grid.html" target="_top" xlink:title=" ">
<polygon fill="white" stroke="#666666" points="397,-152 303,-152 303,-133 397,-133 397,-152"/>
<text text-anchor="middle" x="350" y="-140" font-family="Helvetica,sans-Serif" font-size="10.00">gemmi::Grid&lt; T &gt;</text>
</a>
</g>
</g>
<!-- Node1&#45;&gt;Node5 -->
<g id="edge4_Node000001_Node000005" class="edge">
<title>Node1&#45;&gt;Node5</title>
<g id="a_edge4_Node000001_Node000005"><a xlink:title=" ">
<path fill="none" stroke="#63b8ff" d="M254.18,-128.45C270.53,-130.88 287.67,-133.41 302.8,-135.66"/>
<polygon fill="#63b8ff" stroke="#63b8ff" points="254.52,-124.96 244.12,-126.96 253.49,-131.89 254.52,-124.96"/>
</a>
</g>
</g>
<!-- Node6 -->
<g id="Node000006" class="node">
<title>Node6</title>
<g id="a_Node000006"><a xlink:href="structgemmi_1_1Grid.html" target="_top" xlink:title=" ">
<polygon fill="white" stroke="#666666" points="415.5,-115 284.5,-115 284.5,-74 415.5,-74 415.5,-115"/>
<text text-anchor="start" x="292.5" y="-103" font-family="Helvetica,sans-Serif" font-size="10.00">gemmi::Grid&lt; std::vector</text>
<text text-anchor="start" x="292.5" y="-92" font-family="Helvetica,sans-Serif" font-size="10.00">&lt; gemmi::NeighborSearch</text>
<text text-anchor="middle" x="350" y="-81" font-family="Helvetica,sans-Serif" font-size="10.00">::Mark &gt; &gt;</text>
</a>
</g>
</g>
<!-- Node1&#45;&gt;Node6 -->
<g id="edge5_Node000001_Node000006" class="edge">
<title>Node1&#45;&gt;Node6</title>
<g id="a_edge5_Node000001_Node000006"><a xlink:title=" ">
<path fill="none" stroke="#63b8ff" d="M254.03,-108.57C264.07,-107.08 274.4,-105.55 284.39,-104.07"/>
<polygon fill="#63b8ff" stroke="#63b8ff" points="253.49,-105.11 244.12,-110.04 254.52,-112.04 253.49,-105.11"/>
</a>
</g>
</g>
<!-- Node7 -->
<g id="Node000007" class="node">
<title>Node7</title>
<g id="a_Node000007"><a xlink:href="structgemmi_1_1Grid.html" target="_top" xlink:title="Real&#45;space grid.">
<polygon fill="white" stroke="#666666" points="397,-56 303,-56 303,-37 397,-37 397,-56"/>
<text text-anchor="middle" x="350" y="-44" font-family="Helvetica,sans-Serif" font-size="10.00">gemmi::Grid&lt; T &gt;</text>
</a>
</g>
</g>
<!-- Node1&#45;&gt;Node7 -->
<g id="edge6_Node000001_Node000007" class="edge">
<title>Node1&#45;&gt;Node7</title>
<g id="a_edge6_Node000001_Node000007"><a xlink:title=" ">
<path fill="none" stroke="#63b8ff" d="M209.37,-103.19C227.67,-91.24 254.6,-74.96 280,-64.5 287.9,-61.25 296.55,-58.44 304.98,-56.08"/>
<polygon fill="#63b8ff" stroke="#63b8ff" points="207.27,-100.38 200.88,-108.82 211.14,-106.21 207.27,-100.38"/>
</a>
</g>
</g>
<!-- Node8 -->
<g id="Node000008" class="node">
<title>Node8</title>
<g id="a_Node000008"><a xlink:href="structgemmi_1_1ReciprocalGrid.html" target="_top" xlink:title=" ">
<polygon fill="white" stroke="#666666" points="420,-19 280,-19 280,0 420,0 420,-19"/>
<text text-anchor="middle" x="350" y="-7" font-family="Helvetica,sans-Serif" font-size="10.00">gemmi::ReciprocalGrid&lt; T &gt;</text>
</a>
</g>
</g>
<!-- Node1&#45;&gt;Node8 -->
<g id="edge7_Node000001_Node000008" class="edge">
<title>Node1&#45;&gt;Node8</title>
<g id="a_edge7_Node000001_Node000008"><a xlink:title=" ">
<path fill="none" stroke="#63b8ff" d="M200.19,-100.9C216.62,-80.23 246.63,-46.38 280,-27.5 286.03,-24.09 292.73,-21.3 299.51,-19.04"/>
<polygon fill="#63b8ff" stroke="#63b8ff" points="197.37,-98.82 194.01,-108.87 202.91,-103.11 197.37,-98.82"/>
</a>
</g>
</g>
<!-- Node2 -->
<g id="Node000002" class="node">
<title>Node2</title>
<g id="a_Node000002"><a xlink:href="structgemmi_1_1GridMeta.html" target="_top" xlink:title="The base of Grid classes that does not depend on stored data type.">
<polygon fill="white" stroke="#666666" points="92,-128 0,-128 0,-109 92,-109 92,-128"/>
<text text-anchor="middle" x="46" y="-116" font-family="Helvetica,sans-Serif" font-size="10.00">gemmi::GridMeta</text>
</a>
</g>
</g>
<!-- Node2&#45;&gt;Node1 -->
<g id="edge1_Node000001_Node000002" class="edge">
<title>Node2&#45;&gt;Node1</title>
<g id="a_edge1_Node000001_Node000002"><a xlink:title=" ">
<path fill="none" stroke="#63b8ff" d="M102.21,-118.5C110.57,-118.5 119.22,-118.5 127.62,-118.5"/>
<polygon fill="#63b8ff" stroke="#63b8ff" points="102.19,-115 92.19,-118.5 102.19,-122 102.19,-115"/>
</a>
</g>
</g>
</g>
</svg>
