<?xml version="1.0" encoding="UTF-8" standalone="no"?>
<!DOCTYPE svg PUBLIC "-//W3C//DTD SVG 1.1//EN"
 "http://www.w3.org/Graphics/SVG/1.1/DTD/svg11.dtd">
<!-- Generated by graphviz version 2.43.0 (0)
 -->
<!-- Title: gemmi::GridMeta Pages: 1 -->
<svg width="476pt" height="240pt"
 viewBox="0.00 0.00 476.00 240.00" xmlns="http://www.w3.org/2000/svg" xmlns:xlink="http://www.w3.org/1999/xlink">
<g id="graph0" class="graph" transform="scale(1 1) rotate(0) translate(4 236)">
<title>gemmi::GridMeta</title>
<polygon fill="white" stroke="transparent" points="-4,4 -4,-236 472,-236 472,4 -4,4"/>
<!-- Node1 -->
<g id="node1" class="node">
<title>Node1</title>
<g id="a_node1"><a xlink:title="The base of Grid classes that does not depend on stored data type.">
<polygon fill="#bfbfbf" stroke="black" points="0,-111.5 0,-130.5 92,-130.5 92,-111.5 0,-111.5"/>
<text text-anchor="middle" x="46" y="-118.5" font-family="Helvetica,sans-Serif" font-size="10.00">gemmi::GridMeta</text>
</a>
</g>
</g>
<!-- Node2 -->
<g id="node2" class="node">
<title>Node2</title>
<g id="a_node2"><a xlink:href="structgemmi_1_1GridBase.html" target="_top" xlink:title=" ">
<polygon fill="white" stroke="black" points="145.5,-174.5 145.5,-193.5 274.5,-193.5 274.5,-174.5 145.5,-174.5"/>
<text text-anchor="middle" x="210" y="-181.5" font-family="Helvetica,sans-Serif" font-size="10.00">gemmi::GridBase&lt; float &gt;</text>
</a>
</g>
</g>
<!-- Node1&#45;&gt;Node2 -->
<g id="edge1" class="edge">
<title>Node1&#45;&gt;Node2</title>
<path fill="none" stroke="midnightblue" d="M70.21,-135.78C85.99,-145.27 107.62,-157.24 128,-165 137.72,-168.7 148.38,-171.83 158.68,-174.4"/>
<polygon fill="midnightblue" stroke="midnightblue" points="72.01,-132.77 61.65,-130.52 68.34,-138.74 72.01,-132.77"/>
</g>
<!-- Node5 -->
<g id="node5" class="node">
<title>Node5</title>
<g id="a_node5"><a xlink:href="structgemmi_1_1GridBase.html" target="_top" xlink:title=" ">
<polygon fill="white" stroke="black" points="144.5,-136.5 144.5,-155.5 275.5,-155.5 275.5,-136.5 144.5,-136.5"/>
<text text-anchor="middle" x="210" y="-143.5" font-family="Helvetica,sans-Serif" font-size="10.00">gemmi::GridBase&lt; Real &gt;</text>
</a>
</g>
</g>
<!-- Node1&#45;&gt;Node5 -->
<g id="edge4" class="edge">
<title>Node1&#45;&gt;Node5</title>
<path fill="none" stroke="midnightblue" d="M102.38,-129.55C116.81,-131.77 132.43,-134.18 147.17,-136.46"/>
<polygon fill="midnightblue" stroke="midnightblue" points="102.54,-126.03 92.13,-127.96 101.48,-132.95 102.54,-126.03"/>
</g>
<!-- Node7 -->
<g id="node7" class="node">
<title>Node7</title>
<g id="a_node7"><a xlink:href="structgemmi_1_1GridBase.html" target="_top" xlink:title=" ">
<polygon fill="white" stroke="black" points="128,-76.5 128,-117.5 292,-117.5 292,-76.5 128,-76.5"/>
<text text-anchor="start" x="136" y="-105.5" font-family="Helvetica,sans-Serif" font-size="10.00">gemmi::GridBase&lt; std</text>
<text text-anchor="start" x="136" y="-94.5" font-family="Helvetica,sans-Serif" font-size="10.00">::vector&lt; gemmi::NeighborSearch</text>
<text text-anchor="middle" x="210" y="-83.5" font-family="Helvetica,sans-Serif" font-size="10.00">::Mark &gt; &gt;</text>
</a>
</g>
</g>
<!-- Node1&#45;&gt;Node7 -->
<g id="edge6" class="edge">
<title>Node1&#45;&gt;Node7</title>
<path fill="none" stroke="midnightblue" d="M102.04,-112.85C110.36,-111.61 119.09,-110.32 127.82,-109.03"/>
<polygon fill="midnightblue" stroke="midnightblue" points="101.51,-109.39 92.13,-114.31 102.53,-116.31 101.51,-109.39"/>
</g>
<!-- Node9 -->
<g id="node9" class="node">
<title>Node9</title>
<g id="a_node9"><a xlink:href="structgemmi_1_1GridBase.html" target="_top" xlink:title="A common subset of Grid and ReciprocalGrid.">
<polygon fill="white" stroke="black" points="152,-38.5 152,-57.5 268,-57.5 268,-38.5 152,-38.5"/>
<text text-anchor="middle" x="210" y="-45.5" font-family="Helvetica,sans-Serif" font-size="10.00">gemmi::GridBase&lt; T &gt;</text>
</a>
</g>
</g>
<!-- Node1&#45;&gt;Node9 -->
<g id="edge8" class="edge">
<title>Node1&#45;&gt;Node9</title>
<path fill="none" stroke="midnightblue" d="M66.48,-105.09C82.21,-92.99 105.37,-76.82 128,-67 136.75,-63.21 146.37,-60.11 155.83,-57.59"/>
<polygon fill="midnightblue" stroke="midnightblue" points="64.26,-102.39 58.56,-111.32 68.59,-107.89 64.26,-102.39"/>
</g>
<!-- Node3 -->
<g id="node3" class="node">
<title>Node3</title>
<g id="a_node3"><a xlink:href="structgemmi_1_1Grid.html" target="_top" xlink:title=" ">
<polygon fill="white" stroke="black" points="344.5,-212.5 344.5,-231.5 451.5,-231.5 451.5,-212.5 344.5,-212.5"/>
<text text-anchor="middle" x="398" y="-219.5" font-family="Helvetica,sans-Serif" font-size="10.00">gemmi::Grid&lt; float &gt;</text>
</a>
</g>
</g>
<!-- Node2&#45;&gt;Node3 -->
<g id="edge2" class="edge">
<title>Node2&#45;&gt;Node3</title>
<path fill="none" stroke="midnightblue" d="M267.83,-195.61C294.28,-201.01 325.36,-207.36 350.4,-212.48"/>
<polygon fill="midnightblue" stroke="midnightblue" points="268.43,-192.16 257.94,-193.59 267.03,-199.02 268.43,-192.16"/>
</g>
<!-- Node4 -->
<g id="node4" class="node">
<title>Node4</title>
<g id="a_node4"><a xlink:href="structgemmi_1_1Grid.html" target="_top" xlink:title="Real&#45;space grid.">
<polygon fill="white" stroke="black" points="351,-174.5 351,-193.5 445,-193.5 445,-174.5 351,-174.5"/>
<text text-anchor="middle" x="398" y="-181.5" font-family="Helvetica,sans-Serif" font-size="10.00">gemmi::Grid&lt; T &gt;</text>
</a>
</g>
</g>
<!-- Node2&#45;&gt;Node4 -->
<g id="edge3" class="edge">
<title>Node2&#45;&gt;Node4</title>
<path fill="none" stroke="midnightblue" d="M284.87,-184C307.17,-184 331.01,-184 350.94,-184"/>
<polygon fill="midnightblue" stroke="midnightblue" points="284.75,-180.5 274.75,-184 284.75,-187.5 284.75,-180.5"/>
</g>
<!-- Node6 -->
<g id="node6" class="node">
<title>Node6</title>
<g id="a_node6"><a xlink:href="structgemmi_1_1Grid.html" target="_top" xlink:title=" ">
<polygon fill="white" stroke="black" points="344,-136.5 344,-155.5 452,-155.5 452,-136.5 344,-136.5"/>
<text text-anchor="middle" x="398" y="-143.5" font-family="Helvetica,sans-Serif" font-size="10.00">gemmi::Grid&lt; Real &gt;</text>
</a>
</g>
</g>
<!-- Node5&#45;&gt;Node6 -->
<g id="edge5" class="edge">
<title>Node5&#45;&gt;Node6</title>
<path fill="none" stroke="midnightblue" d="M285.63,-146C305.16,-146 325.82,-146 343.97,-146"/>
<polygon fill="midnightblue" stroke="midnightblue" points="285.53,-142.5 275.53,-146 285.53,-149.5 285.53,-142.5"/>
</g>
<!-- Node8 -->
<g id="node8" class="node">
<title>Node8</title>
<g id="a_node8"><a xlink:href="structgemmi_1_1Grid.html" target="_top" xlink:title=" ">
<polygon fill="white" stroke="black" points="332.5,-76.5 332.5,-117.5 463.5,-117.5 463.5,-76.5 332.5,-76.5"/>
<text text-anchor="start" x="340.5" y="-105.5" font-family="Helvetica,sans-Serif" font-size="10.00">gemmi::Grid&lt; std::vector</text>
<text text-anchor="start" x="340.5" y="-94.5" font-family="Helvetica,sans-Serif" font-size="10.00">&lt; gemmi::NeighborSearch</text>
<text text-anchor="middle" x="398" y="-83.5" font-family="Helvetica,sans-Serif" font-size="10.00">::Mark &gt; &gt;</text>
</a>
</g>
</g>
<!-- Node7&#45;&gt;Node8 -->
<g id="edge7" class="edge">
<title>Node7&#45;&gt;Node8</title>
<path fill="none" stroke="midnightblue" d="M302.22,-97C312.43,-97 322.66,-97 332.43,-97"/>
<polygon fill="midnightblue" stroke="midnightblue" points="302.04,-93.5 292.04,-97 302.04,-100.5 302.04,-93.5"/>
</g>
<!-- Node10 -->
<g id="node10" class="node">
<title>Node10</title>
<g id="a_node10"><a xlink:href="structgemmi_1_1Grid.html" target="_top" xlink:title=" ">
<polygon fill="white" stroke="black" points="351,-38.5 351,-57.5 445,-57.5 445,-38.5 351,-38.5"/>
<text text-anchor="middle" x="398" y="-45.5" font-family="Helvetica,sans-Serif" font-size="10.00">gemmi::Grid&lt; T &gt;</text>
</a>
</g>
</g>
<!-- Node9&#45;&gt;Node10 -->
<g id="edge9" class="edge">
<title>Node9&#45;&gt;Node10</title>
<path fill="none" stroke="midnightblue" d="M278.24,-48C302.37,-48 329.01,-48 350.94,-48"/>
<polygon fill="midnightblue" stroke="midnightblue" points="278.07,-44.5 268.07,-48 278.07,-51.5 278.07,-44.5"/>
</g>
<!-- Node11 -->
<g id="node11" class="node">
<title>Node11</title>
<g id="a_node11"><a xlink:href="structgemmi_1_1ReciprocalGrid.html" target="_top" xlink:title=" ">
<polygon fill="white" stroke="black" points="328,-0.5 328,-19.5 468,-19.5 468,-0.5 328,-0.5"/>
<text text-anchor="middle" x="398" y="-7.5" font-family="Helvetica,sans-Serif" font-size="10.00">gemmi::ReciprocalGrid&lt; T &gt;</text>
</a>
</g>
</g>
<!-- Node9&#45;&gt;Node11 -->
<g id="edge10" class="edge">
<title>Node9&#45;&gt;Node11</title>
<path fill="none" stroke="midnightblue" d="M267.83,-36.39C294.28,-30.99 325.36,-24.64 350.4,-19.52"/>
<polygon fill="midnightblue" stroke="midnightblue" points="267.03,-32.98 257.94,-38.41 268.43,-39.84 267.03,-32.98"/>
</g>
</g>
</svg>
