<?xml version="1.0" encoding="UTF-8" standalone="no"?>
<!DOCTYPE svg PUBLIC "-//W3C//DTD SVG 1.1//EN"
 "http://www.w3.org/Graphics/SVG/1.1/DTD/svg11.dtd">
<!-- Generated by graphviz version 2.43.0 (0)
 -->
<!-- Title: gemmi::Span&lt; Item &gt; Pages: 1 -->
<svg width="330pt" height="203pt"
 viewBox="0.00 0.00 330.00 203.00" xmlns="http://www.w3.org/2000/svg" xmlns:xlink="http://www.w3.org/1999/xlink">
<g id="graph0" class="graph" transform="scale(1 1) rotate(0) translate(4 199)">
<title>gemmi::Span&lt; Item &gt;</title>
<!-- Node1 -->
<g id="Node000001" class="node">
<title>Node1</title>
<g id="a_Node000001"><a xlink:title=" ">
<polygon fill="#999999" stroke="#666666" points="224,-195 98,-195 98,-176 224,-176 224,-195"/>
<text text-anchor="middle" x="161" y="-183" font-family="Helvetica,sans-Serif" font-size="10.00">gemmi::Span&lt; Item &gt;</text>
</a>
</g>
</g>
<!-- Node2 -->
<g id="Node000002" class="node">
<title>Node2</title>
<g id="a_Node000002"><a xlink:href="structgemmi_1_1MutableVectorSpan.html" target="_top" xlink:title=" ">
<polygon fill="white" stroke="#666666" points="152,-140 0,-140 0,-110 152,-110 152,-140"/>
<text text-anchor="start" x="8" y="-128" font-family="Helvetica,sans-Serif" font-size="10.00">gemmi::MutableVectorSpan</text>
<text text-anchor="middle" x="76" y="-117" font-family="Helvetica,sans-Serif" font-size="10.00">&lt; Residue &gt;</text>
</a>
</g>
</g>
<!-- Node1&#45;&gt;Node2 -->
<g id="edge1_Node000001_Node000002" class="edge">
<title>Node1&#45;&gt;Node2</title>
<g id="a_edge1_Node000001_Node000002"><a xlink:title=" ">
<path fill="none" stroke="#63b8ff" d="M139.98,-170.03C126.71,-160.9 109.67,-149.17 96.51,-140.11"/>
<polygon fill="#63b8ff" stroke="#63b8ff" points="138.24,-173.08 148.46,-175.87 142.2,-167.32 138.24,-173.08"/>
</a>
</g>
</g>
<!-- Node5 -->
<g id="Node000005" class="node">
<title>Node5</title>
<g id="a_Node000005"><a xlink:href="structgemmi_1_1MutableVectorSpan.html" target="_top" xlink:title=" ">
<polygon fill="white" stroke="#666666" points="322,-140 170,-140 170,-110 322,-110 322,-140"/>
<text text-anchor="start" x="178" y="-128" font-family="Helvetica,sans-Serif" font-size="10.00">gemmi::MutableVectorSpan</text>
<text text-anchor="middle" x="246" y="-117" font-family="Helvetica,sans-Serif" font-size="10.00">&lt; Item &gt;</text>
</a>
</g>
</g>
<!-- Node1&#45;&gt;Node5 -->
<g id="edge4_Node000001_Node000005" class="edge">
<title>Node1&#45;&gt;Node5</title>
<g id="a_edge4_Node000001_Node000005"><a xlink:title=" ">
<path fill="none" stroke="#63b8ff" d="M182.02,-170.03C195.29,-160.9 212.33,-149.17 225.49,-140.11"/>
<polygon fill="#63b8ff" stroke="#63b8ff" points="179.8,-167.32 173.54,-175.87 183.76,-173.08 179.8,-167.32"/>
</a>
</g>
</g>
<!-- Node3 -->
<g id="Node000003" class="node">
<title>Node3</title>
<g id="a_Node000003"><a xlink:href="structgemmi_1_1ResidueSpan.html" target="_top" xlink:title=" ">
<polygon fill="white" stroke="#666666" points="136,-74 16,-74 16,-55 136,-55 136,-74"/>
<text text-anchor="middle" x="76" y="-62" font-family="Helvetica,sans-Serif" font-size="10.00">gemmi::ResidueSpan</text>
</a>
</g>
</g>
<!-- Node2&#45;&gt;Node3 -->
<g id="edge2_Node000002_Node000003" class="edge">
<title>Node2&#45;&gt;Node3</title>
<g id="a_edge2_Node000002_Node000003"><a xlink:title=" ">
<path fill="none" stroke="#63b8ff" d="M76,-99.75C76,-90.72 76,-81.03 76,-74.27"/>
<polygon fill="#63b8ff" stroke="#63b8ff" points="72.5,-99.84 76,-109.84 79.5,-99.84 72.5,-99.84"/>
</a>
</g>
</g>
<!-- Node4 -->
<g id="Node000004" class="node">
<title>Node4</title>
<g id="a_Node000004"><a xlink:href="structgemmi_1_1ResidueGroup.html" target="_top" xlink:title=" ">
<polygon fill="white" stroke="#666666" points="138.5,-19 13.5,-19 13.5,0 138.5,0 138.5,-19"/>
<text text-anchor="middle" x="76" y="-7" font-family="Helvetica,sans-Serif" font-size="10.00">gemmi::ResidueGroup</text>
</a>
</g>
</g>
<!-- Node3&#45;&gt;Node4 -->
<g id="edge3_Node000003_Node000004" class="edge">
<title>Node3&#45;&gt;Node4</title>
<g id="a_edge3_Node000003_Node000004"><a xlink:title=" ">
<path fill="none" stroke="#63b8ff" d="M76,-44.66C76,-35.93 76,-25.99 76,-19.09"/>
<polygon fill="#63b8ff" stroke="#63b8ff" points="72.5,-44.75 76,-54.75 79.5,-44.75 72.5,-44.75"/>
</a>
</g>
</g>
</g>
</svg>
