<?xml version="1.0" encoding="UTF-8" standalone="no"?>
<!DOCTYPE svg PUBLIC "-//W3C//DTD SVG 1.1//EN"
 "http://www.w3.org/Graphics/SVG/1.1/DTD/svg11.dtd">
<!-- Generated by graphviz version 2.43.0 (0)
 -->
<!-- Title: gemmi::ConstResidueSpan Pages: 1 -->
<svg width="161pt" height="148pt"
 viewBox="0.00 0.00 161.00 148.00" xmlns="http://www.w3.org/2000/svg" xmlns:xlink="http://www.w3.org/1999/xlink">
<g id="graph0" class="graph" transform="scale(1 1) rotate(0) translate(4 144)">
<title>gemmi::ConstResidueSpan</title>
<!-- Node1 -->
<g id="Node000001" class="node">
<title>Node1</title>
<g id="a_Node000001"><a xlink:title=" ">
<polygon fill="#999999" stroke="#666666" points="150.5,-74 2.5,-74 2.5,-55 150.5,-55 150.5,-74"/>
<text text-anchor="middle" x="76.5" y="-62" font-family="Helvetica,sans-Serif" font-size="10.00">gemmi::ConstResidueSpan</text>
</a>
</g>
</g>
<!-- Node3 -->
<g id="Node000003" class="node">
<title>Node3</title>
<g id="a_Node000003"><a xlink:href="structgemmi_1_1ConstResidueGroup.html" target="_top" xlink:title=" ">
<polygon fill="white" stroke="#666666" points="153,-19 0,-19 0,0 153,0 153,-19"/>
<text text-anchor="middle" x="76.5" y="-7" font-family="Helvetica,sans-Serif" font-size="10.00">gemmi::ConstResidueGroup</text>
</a>
</g>
</g>
<!-- Node1&#45;&gt;Node3 -->
<g id="edge2_Node000001_Node000003" class="edge">
<title>Node1&#45;&gt;Node3</title>
<g id="a_edge2_Node000001_Node000003"><a xlink:title=" ">
<path fill="none" stroke="#63b8ff" d="M76.5,-44.66C76.5,-35.93 76.5,-25.99 76.5,-19.09"/>
<polygon fill="#63b8ff" stroke="#63b8ff" points="73,-44.75 76.5,-54.75 80,-44.75 73,-44.75"/>
</a>
</g>
</g>
<!-- Node2 -->
<g id="Node000002" class="node">
<title>Node2</title>
<g id="a_Node000002"><a xlink:href="structgemmi_1_1Span.html" target="_top" xlink:title=" ">
<polygon fill="white" stroke="#666666" points="136,-140 17,-140 17,-110 136,-110 136,-140"/>
<text text-anchor="start" x="25" y="-128" font-family="Helvetica,sans-Serif" font-size="10.00">gemmi::Span&lt; const</text>
<text text-anchor="middle" x="76.5" y="-117" font-family="Helvetica,sans-Serif" font-size="10.00"> Residue &gt;</text>
</a>
</g>
</g>
<!-- Node2&#45;&gt;Node1 -->
<g id="edge1_Node000001_Node000002" class="edge">
<title>Node2&#45;&gt;Node1</title>
<g id="a_edge1_Node000001_Node000002"><a xlink:title=" ">
<path fill="none" stroke="#63b8ff" d="M76.5,-99.75C76.5,-90.72 76.5,-81.03 76.5,-74.27"/>
<polygon fill="#63b8ff" stroke="#63b8ff" points="73,-99.84 76.5,-109.84 80,-99.84 73,-99.84"/>
</a>
</g>
</g>
</g>
</svg>
