<?xml version="1.0" encoding="UTF-8" standalone="no"?>
<!DOCTYPE svg PUBLIC "-//W3C//DTD SVG 1.1//EN"
 "http://www.w3.org/Graphics/SVG/1.1/DTD/svg11.dtd">
<!-- Generated by graphviz version 2.43.0 (0)
 -->
<!-- Title: gemmi::GridMeta Pages: 1 -->
<svg width="476pt" height="269pt"
 viewBox="0.00 0.00 476.00 269.00" xmlns="http://www.w3.org/2000/svg" xmlns:xlink="http://www.w3.org/1999/xlink">
<g id="graph0" class="graph" transform="scale(1 1) rotate(0) translate(4 265)">
<title>gemmi::GridMeta</title>
<!-- Node1 -->
<g id="Node000001" class="node">
<title>Node1</title>
<g id="a_Node000001"><a xlink:title="The base of Grid classes that does not depend on stored data type.">
<polygon fill="#999999" stroke="#666666" points="92,-200 0,-200 0,-181 92,-181 92,-200"/>
<text text-anchor="middle" x="46" y="-188" font-family="Helvetica,sans-Serif" font-size="10.00">gemmi::GridMeta</text>
</a>
</g>
</g>
<!-- Node2 -->
<g id="Node000002" class="node">
<title>Node2</title>
<g id="a_Node000002"><a xlink:href="structgemmi_1_1GridBase.html" target="_top" xlink:title=" ">
<polygon fill="white" stroke="#666666" points="274.5,-261 145.5,-261 145.5,-242 274.5,-242 274.5,-261"/>
<text text-anchor="middle" x="210" y="-249" font-family="Helvetica,sans-Serif" font-size="10.00">gemmi::GridBase&lt; float &gt;</text>
</a>
</g>
</g>
<!-- Node1&#45;&gt;Node2 -->
<g id="edge1_Node000001_Node000002" class="edge">
<title>Node1&#45;&gt;Node2</title>
<g id="a_edge1_Node000001_Node000002"><a xlink:title=" ">
<path fill="none" stroke="#63b8ff" d="M70.96,-205.43C86.68,-214.66 107.96,-226.11 128,-233.5 136.92,-236.79 146.62,-239.58 156.12,-241.91"/>
<polygon fill="#63b8ff" stroke="#63b8ff" points="72.33,-202.17 61.95,-200.02 68.73,-208.17 72.33,-202.17"/>
</a>
</g>
</g>
<!-- Node3 -->
<g id="Node000003" class="node">
<title>Node3</title>
<g id="a_Node000003"><a xlink:href="structgemmi_1_1GridBase.html" target="_top" xlink:title=" ">
<polygon fill="white" stroke="#666666" points="279,-224 141,-224 141,-205 279,-205 279,-224"/>
<text text-anchor="middle" x="210" y="-212" font-family="Helvetica,sans-Serif" font-size="10.00">gemmi::GridBase&lt; GReal &gt;</text>
</a>
</g>
</g>
<!-- Node1&#45;&gt;Node3 -->
<g id="edge2_Node000001_Node000003" class="edge">
<title>Node1&#45;&gt;Node3</title>
<g id="a_edge2_Node000001_Node000003"><a xlink:title=" ">
<path fill="none" stroke="#63b8ff" d="M102.32,-198.7C115.97,-200.72 130.71,-202.9 144.74,-204.98"/>
<polygon fill="#63b8ff" stroke="#63b8ff" points="102.53,-195.19 92.13,-197.19 101.51,-202.11 102.53,-195.19"/>
</a>
</g>
</g>
<!-- Node4 -->
<g id="Node000004" class="node">
<title>Node4</title>
<g id="a_Node000004"><a xlink:href="structgemmi_1_1GridBase.html" target="_top" xlink:title=" ">
<polygon fill="white" stroke="#666666" points="292,-187 128,-187 128,-146 292,-146 292,-187"/>
<text text-anchor="start" x="136" y="-175" font-family="Helvetica,sans-Serif" font-size="10.00">gemmi::GridBase&lt; std</text>
<text text-anchor="start" x="136" y="-164" font-family="Helvetica,sans-Serif" font-size="10.00">::vector&lt; gemmi::NeighborSearch</text>
<text text-anchor="middle" x="210" y="-153" font-family="Helvetica,sans-Serif" font-size="10.00">::Mark &gt; &gt;</text>
</a>
</g>
</g>
<!-- Node1&#45;&gt;Node4 -->
<g id="edge3_Node000001_Node000004" class="edge">
<title>Node1&#45;&gt;Node4</title>
<g id="a_edge3_Node000001_Node000004"><a xlink:title=" ">
<path fill="none" stroke="#63b8ff" d="M102.04,-182.35C110.36,-181.11 119.09,-179.82 127.82,-178.53"/>
<polygon fill="#63b8ff" stroke="#63b8ff" points="101.51,-178.89 92.13,-183.81 102.53,-185.81 101.51,-178.89"/>
</a>
</g>
</g>
<!-- Node5 -->
<g id="Node000005" class="node">
<title>Node5</title>
<g id="a_Node000005"><a xlink:href="structgemmi_1_1GridBase.html" target="_top" xlink:title="A common subset of Grid and ReciprocalGrid.">
<polygon fill="white" stroke="#666666" points="268,-128 152,-128 152,-109 268,-109 268,-128"/>
<text text-anchor="middle" x="210" y="-116" font-family="Helvetica,sans-Serif" font-size="10.00">gemmi::GridBase&lt; T &gt;</text>
</a>
</g>
</g>
<!-- Node1&#45;&gt;Node5 -->
<g id="edge4_Node000001_Node000005" class="edge">
<title>Node1&#45;&gt;Node5</title>
<g id="a_edge4_Node000001_Node000005"><a xlink:title=" ">
<path fill="none" stroke="#63b8ff" d="M66.81,-174.69C82.55,-162.85 105.58,-147.11 128,-137.5 136.9,-133.69 146.68,-130.57 156.29,-128.04"/>
<polygon fill="#63b8ff" stroke="#63b8ff" points="64.65,-171.93 58.86,-180.8 68.92,-177.48 64.65,-171.93"/>
</a>
</g>
</g>
<!-- Node6 -->
<g id="Node000006" class="node">
<title>Node6</title>
<g id="a_Node000006"><a xlink:href="structgemmi_1_1Grid.html" target="_top" xlink:title=" ">
<polygon fill="white" stroke="#666666" points="451.5,-226 344.5,-226 344.5,-207 451.5,-207 451.5,-226"/>
<text text-anchor="middle" x="398" y="-214" font-family="Helvetica,sans-Serif" font-size="10.00">gemmi::Grid&lt; float &gt;</text>
</a>
</g>
</g>
<!-- Node5&#45;&gt;Node6 -->
<g id="edge5_Node000005_Node000006" class="edge">
<title>Node5&#45;&gt;Node6</title>
<g id="a_edge5_Node000005_Node000006"><a xlink:title=" ">
<path fill="none" stroke="#63b8ff" d="M277.5,-129.27C282.65,-131.53 287.56,-134.24 292,-137.5 317.36,-156.15 302.87,-179.54 328,-198.5 332.94,-202.23 338.58,-205.19 344.47,-207.53"/>
<polygon fill="#63b8ff" stroke="#63b8ff" points="278.63,-125.96 268.04,-125.69 276.15,-132.5 278.63,-125.96"/>
</a>
</g>
</g>
<!-- Node7 -->
<g id="Node000007" class="node">
<title>Node7</title>
<g id="a_Node000007"><a xlink:href="structgemmi_1_1Grid.html" target="_top" xlink:title=" ">
<polygon fill="white" stroke="#666666" points="456,-189 340,-189 340,-170 456,-170 456,-189"/>
<text text-anchor="middle" x="398" y="-177" font-family="Helvetica,sans-Serif" font-size="10.00">gemmi::Grid&lt; GReal &gt;</text>
</a>
</g>
</g>
<!-- Node5&#45;&gt;Node7 -->
<g id="edge6_Node000005_Node000007" class="edge">
<title>Node5&#45;&gt;Node7</title>
<g id="a_edge6_Node000005_Node000007"><a xlink:title=" ">
<path fill="none" stroke="#63b8ff" d="M273.94,-130.9C280.14,-132.82 286.26,-135.01 292,-137.5 309.64,-145.15 310.45,-153.63 328,-161.5 335.46,-164.84 343.65,-167.66 351.71,-170"/>
<polygon fill="#63b8ff" stroke="#63b8ff" points="274.75,-127.49 264.17,-128.09 272.82,-134.22 274.75,-127.49"/>
</a>
</g>
</g>
<!-- Node8 -->
<g id="Node000008" class="node">
<title>Node8</title>
<g id="a_Node000008"><a xlink:href="structgemmi_1_1Grid.html" target="_top" xlink:title=" ">
<polygon fill="white" stroke="#666666" points="445,-152 351,-152 351,-133 445,-133 445,-152"/>
<text text-anchor="middle" x="398" y="-140" font-family="Helvetica,sans-Serif" font-size="10.00">gemmi::Grid&lt; T &gt;</text>
</a>
</g>
</g>
<!-- Node5&#45;&gt;Node8 -->
<g id="edge7_Node000005_Node000008" class="edge">
<title>Node5&#45;&gt;Node8</title>
<g id="a_edge7_Node000005_Node000008"><a xlink:title=" ">
<path fill="none" stroke="#63b8ff" d="M278.24,-127.18C302.37,-130.29 329.01,-133.73 350.94,-136.56"/>
<polygon fill="#63b8ff" stroke="#63b8ff" points="278.44,-123.67 268.07,-125.86 277.54,-130.61 278.44,-123.67"/>
</a>
</g>
</g>
<!-- Node9 -->
<g id="Node000009" class="node">
<title>Node9</title>
<g id="a_Node000009"><a xlink:href="structgemmi_1_1Grid.html" target="_top" xlink:title=" ">
<polygon fill="white" stroke="#666666" points="463.5,-115 332.5,-115 332.5,-74 463.5,-74 463.5,-115"/>
<text text-anchor="start" x="340.5" y="-103" font-family="Helvetica,sans-Serif" font-size="10.00">gemmi::Grid&lt; std::vector</text>
<text text-anchor="start" x="340.5" y="-92" font-family="Helvetica,sans-Serif" font-size="10.00">&lt; gemmi::NeighborSearch</text>
<text text-anchor="middle" x="398" y="-81" font-family="Helvetica,sans-Serif" font-size="10.00">::Mark &gt; &gt;</text>
</a>
</g>
</g>
<!-- Node5&#45;&gt;Node9 -->
<g id="edge8_Node000005_Node000009" class="edge">
<title>Node5&#45;&gt;Node9</title>
<g id="a_edge8_Node000005_Node000009"><a xlink:title=" ">
<path fill="none" stroke="#63b8ff" d="M278.25,-109.82C295.85,-107.55 314.77,-105.11 332.23,-102.86"/>
<polygon fill="#63b8ff" stroke="#63b8ff" points="277.54,-106.39 268.07,-111.14 278.44,-113.33 277.54,-106.39"/>
</a>
</g>
</g>
<!-- Node10 -->
<g id="Node000010" class="node">
<title>Node10</title>
<g id="a_Node000010"><a xlink:href="structgemmi_1_1Grid.html" target="_top" xlink:title="Real&#45;space grid.">
<polygon fill="white" stroke="#666666" points="445,-56 351,-56 351,-37 445,-37 445,-56"/>
<text text-anchor="middle" x="398" y="-44" font-family="Helvetica,sans-Serif" font-size="10.00">gemmi::Grid&lt; T &gt;</text>
</a>
</g>
</g>
<!-- Node5&#45;&gt;Node10 -->
<g id="edge9_Node000005_Node000010" class="edge">
<title>Node5&#45;&gt;Node10</title>
<g id="a_edge9_Node000005_Node000010"><a xlink:title=" ">
<path fill="none" stroke="#63b8ff" d="M238.66,-104.48C262.05,-92.99 296.67,-76.83 328,-65.5 337.58,-62.03 348.1,-58.84 357.98,-56.1"/>
<polygon fill="#63b8ff" stroke="#63b8ff" points="237.07,-101.36 229.67,-108.94 240.18,-107.63 237.07,-101.36"/>
</a>
</g>
</g>
<!-- Node11 -->
<g id="Node000011" class="node">
<title>Node11</title>
<g id="a_Node000011"><a xlink:href="structgemmi_1_1ReciprocalGrid.html" target="_top" xlink:title=" ">
<polygon fill="white" stroke="#666666" points="468,-19 328,-19 328,0 468,0 468,-19"/>
<text text-anchor="middle" x="398" y="-7" font-family="Helvetica,sans-Serif" font-size="10.00">gemmi::ReciprocalGrid&lt; T &gt;</text>
</a>
</g>
</g>
<!-- Node5&#45;&gt;Node11 -->
<g id="edge10_Node000005_Node000011" class="edge">
<title>Node5&#45;&gt;Node11</title>
<g id="a_edge10_Node000005_Node000011"><a xlink:title=" ">
<path fill="none" stroke="#63b8ff" d="M228.11,-101.83C249.69,-81.69 288.74,-48.06 328,-28.5 335.56,-24.73 343.98,-21.63 352.25,-19.09"/>
<polygon fill="#63b8ff" stroke="#63b8ff" points="225.57,-99.42 220.73,-108.84 230.39,-104.49 225.57,-99.42"/>
</a>
</g>
</g>
</g>
</svg>
